<?xml version="1.0" encoding="iso-8859-1"?>
<!-- Generator: Adobe Illustrator 19.0.0, SVG Export Plug-In . SVG Version: 6.00 Build 0)  -->
<svg version="1.1" id="Layer_1" xmlns="http://www.w3.org/2000/svg" xmlns:xlink="http://www.w3.org/1999/xlink" x="0px" y="0px"
	 viewBox="0 0 512 512" style="enable-background:new 0 0 512 512;" xml:space="preserve">
<path style="fill:#39AE96;" d="M511.996,256.364c0-0.121,0.004-0.243,0.004-0.364C512,114.616,397.384,0,256,0
	C114.615,0,0,114.616,0,256c0,127.28,92.892,232.846,214.577,252.646L511.996,256.364z"/>
<path style="fill:#1C9585;" d="M511.996,256.364L350.424,94.792l-8.622,13.277l-74.679-74.679L134.008,428.079l80.569,80.569
	C228.063,510.841,241.894,512,256,512C397.263,512,511.799,397.581,511.996,256.364z"/>
<rect x="244.858" y="33.391" style="fill:#365F2C;" width="22.261" height="48.972"/>
<path style="fill:#193D2F;" d="M418.68,248.549l-36.734-103.877C363.602,92.81,314.144,55.652,256,55.652L222.609,267.13
	L256,478.609c95.281,0,172.522-77.241,172.522-172.522C428.522,285.91,425.046,266.546,418.68,248.549z"/>
<path style="fill:#FFE65A;" d="M397.693,255.971l-36.734-103.876C345.266,107.725,303.085,77.913,256,77.913L222.609,267.13
	L256,456.348c82.854,0,150.261-67.407,150.261-150.261C406.261,288.905,403.378,272.044,397.693,255.971z"/>
<circle style="fill:#813115;" cx="256" cy="306.087" r="83.478"/>
<path style="fill:#274E2D;" d="M130.054,144.672L93.32,248.549c-6.366,17.997-9.842,37.36-9.842,57.538
	c0,95.281,77.241,172.522,172.522,172.522V55.652C197.856,55.652,148.398,92.81,130.054,144.672z"/>
<g>
	<rect x="151.374" y="152.487" style="fill:#193D2F;" width="22.261" height="22.261"/>
	<rect x="184.765" y="185.878" style="fill:#193D2F;" width="22.261" height="22.261"/>
	<rect x="189.217" y="400.696" style="fill:#193D2F;" width="22.261" height="22.261"/>
	<rect x="211.478" y="111.304" style="fill:#193D2F;" width="22.261" height="22.261"/>
	<rect x="117.983" y="322.783" style="fill:#193D2F;" width="22.261" height="22.261"/>
	<rect x="162.504" y="278.261" style="fill:#193D2F;" width="22.261" height="22.261"/>
</g>
<g>
</g>
<g>
</g>
<g>
</g>
<g>
</g>
<g>
</g>
<g>
</g>
<g>
</g>
<g>
</g>
<g>
</g>
<g>
</g>
<g>
</g>
<g>
</g>
<g>
</g>
<g>
</g>
<g>
</g>
</svg>
